{"title":"T in the Park 2016 - Diplo","uid":15435041,"size":215921703,"categoryP":"video","categoryS":"hd___movies","magnet":"?xt=urn:btih:367003b37762faa754f9d70d1c23c906fcd9f6a6&amp;dn=T+in+the+Park+2016+-+Diplo&amp;tr=udp%3A%2F%2Ftracker.leechers-paradise.org%3A6969&amp;tr=udp%3A%2F%2Fzer0day.ch%3A1337&amp;tr=udp%3A%2F%2Fopen.demonii.com%3A1337&amp;tr=udp%3A%2F%2Ftracker.coppersurfer.tk%3A6969&amp;tr=udp%3A%2F%2Fexodus.desync.com%3A6969","seeders":0,"leechers":0,"uploader":"RoaElson","files":2,"time":1469752798,"description":"T in the Park 2016: Diplo\r\n\r\nThe Mad Decent boss brings his collection of bangers and the Tut's Tent goes off.\r\n\r\n\r\n\r\nFirst Shown: 8 July 2016\r\nDuration: 10 minutes \r\n\r\nMedia info:\r\n\r\nGeneral\r\nFormat : MPEG-4\r\nFormat profile : Base Media\r\nCodec ID : isom (isom/iso2/avc1/mp41)\r\nFile size : 205 MiB\r\nDuration : 12mn 16s\r\nOverall bit rate mode : Variable\r\nOverall bit rate : 2 337 Kbps\r\n\r\nVideo\r\nID : 1\r\nFormat : AVC\r\nFormat/Info : Advanced Video Codec\r\nFormat profile :   \r\nFormat settings, CABAC : Yes\r\nFormat settings, ReFrames : 2 frames\r\nCodec ID : avc1\r\nCodec ID/Info : Advanced Video Coding\r\nDuration : 12mn 16s\r\nBit rate mode : Variable\r\nBit rate : 2 238 Kbps\r\nMaximum bit rate : 3 500 Kbps\r\nWidth : 1 280 pixels\r\nHeight : 720 pixels\r\nDisplay aspect ratio : 16:9\r\nFrame rate mode : Constant\r\nFrame rate : 25.000 fps\r\nColor space : YUV\r\nChroma subsampling : 4:2:0\r\nBit depth : 8 bits\r\nScan type : Progressive\r\nBits/(Pixel*Frame) : 0.097\r\nStream size : 196 MiB (96%)\r\n\r\n\r\nAudio\r\nID : 2\r\nFormat : AAC\r\nFormat/Info : Advanced Audio Codec\r\nFormat profile : LC\r\nCodec ID : 40\r\nDuration : 12mn 16s\r\nBit rate mode : Constant\r\nBit rate : 93.5 Kbps\r\nChannel(s) : 2 channels\r\nChannel positions : Front: L R\r\nSampling rate : 48.0 KHz\r\nFrame rate : 46.875 fps (1024 spf)\r\nCompression mode : Lossy\r\nStream size : 8.20 MiB (4%)","torrent":{"xt":"urn:btih:367003b37762faa754f9d70d1c23c906fcd9f6a6","amp;dn":"T+in+the+Park+2016+-+Diplo","amp;tr":["udp%3A%2F%2Ftracker.leechers-paradise.org%3A6969","udp%3A%2F%2Fzer0day.ch%3A1337","udp%3A%2F%2Fopen.demonii.com%3A1337","udp%3A%2F%2Ftracker.coppersurfer.tk%3A6969","udp%3A%2F%2Fexodus.desync.com%3A6969"],"infoHash":"367003b37762faa754f9d70d1c23c906fcd9f6a6","infoHashBuffer":{"type":"Buffer","data":[54,112,3,179,119,98,250,167,84,249,215,13,28,35,201,6,252,217,246,166]},"announce":[],"urlList":[]}}